<svg width="24" height="24" viewBox="0 0 24 24" fill="none" xmlns="http://www.w3.org/2000/svg">
<path d="M13.307 16.6365C13.3076 16.5024 13.2803 16.3696 13.227 16.2465C13.1736 16.1234 13.0953 16.0128 12.997 15.9215L7.02901 10.4155L1.05901 15.9215C0.960894 16.0129 0.882777 16.1236 0.829593 16.2466C0.776409 16.3697 0.749312 16.5024 0.750013 16.6365V22.0065C0.750013 22.2627 0.851788 22.5084 1.03295 22.6896C1.21411 22.8707 1.45981 22.9725 1.71601 22.9725H12.342C12.5982 22.9725 12.8439 22.8707 13.0251 22.6896C13.2062 22.5084 13.308 22.2627 13.308 22.0065L13.307 16.6365ZM16.726 7.5875C17.1799 7.59526 17.6307 7.51258 18.0523 7.34427C18.4738 7.17596 18.8576 6.92539 19.1813 6.60718C19.505 6.28898 19.7621 5.9095 19.9376 5.49089C20.1131 5.07228 20.2035 4.62291 20.2035 4.169C20.2035 3.71509 20.1131 3.26572 19.9376 2.84711C19.7621 2.4285 19.505 2.04902 19.1813 1.73082C18.8576 1.41261 18.4738 1.16204 18.0523 0.993734C17.6307 0.825423 17.1799 0.742737 16.726 0.7505C15.8295 0.765834 14.9749 1.13274 14.3463 1.77216C13.7177 2.41159 13.3655 3.27235 13.3655 4.169C13.3655 5.06565 13.7177 5.92641 14.3463 6.56584C14.9749 7.20526 15.8295 7.57217 16.726 7.5875Z" stroke="#0F6878" stroke-width="1.5" stroke-linecap="round" stroke-linejoin="round"/>
<path d="M16.1519 22.9725H19.2899L20.1449 16.1345H22.7089V13.5715C22.7089 12.2755 22.288 11.0145 21.5097 9.9783C20.7313 8.94207 19.6376 8.18659 18.3929 7.82549C17.1482 7.46439 15.82 7.51721 14.6079 7.97599C13.3958 8.43477 12.3655 9.27472 11.6719 10.3695M7.02789 15.4945V20.3285M9.44489 17.9115H4.60889" stroke="#0F6878" stroke-width="1.5" stroke-linecap="round" stroke-linejoin="round"/>
</svg>
